<svg xmlns="http://www.w3.org/2000/svg" version="1.1" xmlns:xlink="http://www.w3.org/1999/xlink" xmlns:svgjs="http://svgjs.dev/svgjs" width="1440" height="560" preserveAspectRatio="none" viewBox="0 0 1440 560"><g mask="url(&quot;#SvgjsMask1055&quot;)" fill="none"><rect width="1440" height="560" x="0" y="0" fill="rgba(13, 19, 33, 1)"></rect><path d="M1464 560L0 560 L0 342.43Q33.21 303.64, 72 336.85Q92.67 237.52, 192 258.19Q234.62 228.81, 264 271.42Q357.71 245.13, 384 338.85Q443.43 326.28, 456 385.71Q462.87 272.58, 576 279.45Q605.18 236.63, 648 265.81Q712.9 258.72, 720 323.62Q738.54 270.16, 792 288.71Q874.7 251.41, 912 334.12Q973.69 323.81, 984 385.5Q1011.5 293, 1104 320.5Q1177.63 274.13, 1224 347.75Q1299.61 303.36, 1344 378.96Q1362.58 277.53, 1464 296.11z" fill="rgba(34, 58, 116, 1)"></path><path d="M1488 560L0 560 L0 352.84Q125.66 358.5, 120 484.16Q107.57 399.73, 192 387.3Q244.38 319.68, 312 372.05Q365.16 353.21, 384 406.36Q450.38 352.74, 504 419.11Q558.23 401.34, 576 455.57Q602.21 361.78, 696 388Q738.46 358.46, 768 400.91Q815.5 376.41, 840 423.91Q898.26 410.18, 912 468.44Q940.72 425.16, 984 453.89Q1019.26 369.15, 1104 404.42Q1140.92 321.35, 1224 358.27Q1312.17 326.44, 1344 414.62Q1369.19 367.81, 1416 393.01Q1473.97 378.99, 1488 436.96z" fill="rgba(50, 80, 132, 1)"></path><path d="M1464 560L0 560 L0 518.07Q63.71 509.78, 72 573.48Q80.87 462.35, 192 471.21Q273.35 480.56, 264 561.92Q311.55 537.47, 336 585.03Q364.75 493.78, 456 522.53Q483.77 430.3, 576 458.07Q648.74 410.81, 696 483.54Q795.75 463.29, 816 563.05Q837.13 512.18, 888 533.31Q909.63 482.94, 960 504.57Q1010.49 435.06, 1080 485.55Q1101.34 434.89, 1152 456.23Q1216.89 449.12, 1224 514.01Q1304.52 474.52, 1344 555.04Q1363.48 454.51, 1464 473.99z" fill="rgba(128, 149, 190, 1)"></path></g><defs><mask id="SvgjsMask1055"><rect width="1440" height="560" fill="#ffffff"></rect></mask></defs></svg>